<svg width="18" height="14" viewBox="0 0 18 14" fill="none" xmlns="http://www.w3.org/2000/svg">
<path d="M7.25572 7.35355L1.78983 13.4268C1.52622 13.7197 1.09883 13.7197 0.835242 13.4268L0.197705 12.7184C-0.0654604 12.426 -0.0659667 11.9521 0.19658 11.659L4.52845 6.8232L0.196608 1.98743C-0.0659385 1.69433 -0.0654323 1.22043 0.197733 0.928023L0.835242 0.21968C1.09886 -0.0732265 1.52624 -0.0732265 1.78983 0.21968L7.25572 6.29289C7.51934 6.58577 7.51934 7.06064 7.25572 7.35355ZM18 13.0732V12.0732C18 11.659 17.6978 11.3232 17.325 11.3232H8.77501C8.40221 11.3232 8.10001 11.659 8.10001 12.0732V13.0732C8.10001 13.4874 8.40221 13.8232 8.77501 13.8232H17.325C17.6978 13.8232 18 13.4874 18 13.0732Z" fill="white"/>
</svg>
