<svg width="64" height="64" viewBox="0 0 64 64" fill="none" xmlns="http://www.w3.org/2000/svg">
<ellipse cx="32.0695" cy="32.0001" rx="31.9181" ry="32" fill="#9C1DE8" fill-opacity="0.1"/>
<path d="M42.479 24.8001L32.8786 19.2351C32.0757 18.7626 31.0633 18.7626 30.2603 19.2351L20.66 24.8001C19.857 25.2726 19.3508 26.1301 19.3508 27.0751V38.1876C19.3508 39.1326 19.857 39.9901 20.66 40.4626L30.2603 46.0276C31.0633 46.5001 32.0757 46.5001 32.8786 46.0276L42.479 40.4626C43.2819 39.9901 43.7881 39.1326 43.7881 38.1876V27.0751C43.7881 26.1301 43.2819 25.2726 42.479 24.8001ZM22.8419 37.6801V29.5951L29.824 33.6551V41.7226L22.8419 37.6801ZM31.5695 30.6276L24.5874 26.5676L31.5695 22.5251L38.5516 26.5676L31.5695 30.6276ZM33.315 41.7226V33.6551L40.2971 29.5951V37.6801L33.315 41.7226ZM22.8419 15.0001H16.7325C15.2838 15.0001 14.1143 16.1726 14.1143 17.6251V23.7501H17.6053V18.5001H22.8419V15.0001ZM40.2971 15.0001H46.4064C47.8552 15.0001 49.0247 16.1726 49.0247 17.6251V23.7501H45.5337V18.5001H40.2971V15.0001ZM22.8419 50.0001H16.7325C15.2838 50.0001 14.1143 48.8276 14.1143 47.3751V41.2501H17.6053V46.5001H22.8419V50.0001ZM40.2971 50.0001H46.4064C47.8552 50.0001 49.0247 48.8276 49.0247 47.3751V41.2501H45.5337V46.5001H40.2971V50.0001Z" fill="#9C1DE8"/>
</svg>
