<svg width="20" height="20" viewBox="0 0 20 20" fill="none" xmlns="http://www.w3.org/2000/svg">
<path d="M20 10C20 15.5234 15.5234 20 10 20C4.47656 20 0 15.5234 0 10C0 4.47656 4.47656 0 10 0C15.5234 0 20 4.47656 20 10ZM7.35547 5.74609C7.05859 5.91016 6.875 6.22656 6.875 6.5625V13.4375C6.875 13.7773 7.05859 14.0898 7.35547 14.2539C7.65234 14.418 8.01172 14.4141 8.30469 14.2344L13.9297 10.7969C14.207 10.625 14.3789 10.3242 14.3789 9.99609C14.3789 9.66797 14.207 9.36719 13.9297 9.19531L8.30469 5.75781C8.01562 5.58203 7.65234 5.57422 7.35547 5.73828V5.74609Z" fill="#571B97"/>
</svg>
