<svg width="20" height="20" viewBox="0 0 20 20" fill="none" xmlns="http://www.w3.org/2000/svg">
<path d="M6.875 0.9375C6.875 0.417969 6.45703 0 5.9375 0C5.41797 0 5 0.417969 5 0.9375V2.5C3.62109 2.5 2.5 3.62109 2.5 5H0.9375C0.417969 5 0 5.41797 0 5.9375C0 6.45703 0.417969 6.875 0.9375 6.875H2.5V9.0625H0.9375C0.417969 9.0625 0 9.48047 0 10C0 10.5195 0.417969 10.9375 0.9375 10.9375H2.5V13.125H0.9375C0.417969 13.125 0 13.543 0 14.0625C0 14.582 0.417969 15 0.9375 15H2.5C2.5 16.3789 3.62109 17.5 5 17.5V19.0625C5 19.582 5.41797 20 5.9375 20C6.45703 20 6.875 19.582 6.875 19.0625V17.5H9.0625V19.0625C9.0625 19.582 9.48047 20 10 20C10.5195 20 10.9375 19.582 10.9375 19.0625V17.5H13.125V19.0625C13.125 19.582 13.543 20 14.0625 20C14.582 20 15 19.582 15 19.0625V17.5C16.3789 17.5 17.5 16.3789 17.5 15H19.0625C19.582 15 20 14.582 20 14.0625C20 13.543 19.582 13.125 19.0625 13.125H17.5V10.9375H19.0625C19.582 10.9375 20 10.5195 20 10C20 9.48047 19.582 9.0625 19.0625 9.0625H17.5V6.875H19.0625C19.582 6.875 20 6.45703 20 5.9375C20 5.41797 19.582 5 19.0625 5H17.5C17.5 3.62109 16.3789 2.5 15 2.5V0.9375C15 0.417969 14.582 0 14.0625 0C13.543 0 13.125 0.417969 13.125 0.9375V2.5H10.9375V0.9375C10.9375 0.417969 10.5195 0 10 0C9.48047 0 9.0625 0.417969 9.0625 0.9375V2.5H6.875V0.9375ZM6.25 5H13.75C14.4414 5 15 5.55859 15 6.25V13.75C15 14.4414 14.4414 15 13.75 15H6.25C5.55859 15 5 14.4414 5 13.75V6.25C5 5.55859 5.55859 5 6.25 5ZM13.75 6.25H6.25V13.75H13.75V6.25Z" fill="white"/>
</svg>
