<svg width="36" height="35" viewBox="0 0 36 35" fill="none" xmlns="http://www.w3.org/2000/svg">
<path d="M28.479 9.80012L18.8786 4.23512C18.0757 3.76262 17.0633 3.76262 16.2603 4.23512L6.65997 9.80012C5.85703 10.2726 5.35082 11.1301 5.35082 12.0751V23.1876C5.35082 24.1326 5.85703 24.9901 6.65997 25.4626L16.2603 31.0276C17.0633 31.5001 18.0757 31.5001 18.8786 31.0276L28.479 25.4626C29.2819 24.9901 29.7881 24.1326 29.7881 23.1876V12.0751C29.7881 11.1301 29.2819 10.2726 28.479 9.80012ZM8.84187 22.6801V14.5951L15.824 18.6551V26.7226L8.84187 22.6801ZM17.5695 15.6276L10.5874 11.5676L17.5695 7.52512L24.5516 11.5676L17.5695 15.6276ZM19.315 26.7226V18.6551L26.2971 14.5951V22.6801L19.315 26.7226ZM8.84187 0.00012207H2.73254C1.28376 0.00012207 0.114258 1.17262 0.114258 2.62512V8.75012H3.6053V3.50012H8.84187V0.00012207ZM26.2971 0.00012207H32.4064C33.8552 0.00012207 35.0247 1.17262 35.0247 2.62512V8.75012H31.5337V3.50012H26.2971V0.00012207ZM8.84187 35.0001H2.73254C1.28376 35.0001 0.114258 33.8276 0.114258 32.3751V26.2501H3.6053V31.5001H8.84187V35.0001ZM26.2971 35.0001H32.4064C33.8552 35.0001 35.0247 33.8276 35.0247 32.3751V26.2501H31.5337V31.5001H26.2971V35.0001Z" fill="#9C1DE8"/>
</svg>
